<svg xmlns="http://www.w3.org/2000/svg" viewBox="0 0 256 256"><path d="M20.7,10c3,0,5.6,1,7.6,3.1l67.5,67.5V31.4c0-3,1-5.5,3.1-7.6c2.1-2.1,4.6-3.1,7.6-3.1c3,0,5.5,1,7.6,3.1c2.1,2.1,3.1,4.6,3.1,7.6v75.1c0,3-1.1,5.5-3.2,7.6c-2.1,2.1-4.7,3.2-7.6,3.2H31.4c-3,0-5.5-1-7.6-3.1c-2.1-2.1-3.1-4.6-3.1-7.6c0-3,1-5.5,3.1-7.6s4.6-3.1,7.6-3.1h49.2L13.1,28.4C11,26.3,10,23.8,10,20.7c0-3.1,1-5.6,3.1-7.7C15.1,11,17.7,10,20.7,10zM149.5,138.7h75.1c3,0,5.5,1,7.6,3.1c2.1,2.1,3.1,4.6,3.1,7.6c0,3-1,5.5-3.1,7.6c-2.1,2.1-4.6,3.1-7.6,3.1h-49.2l67.4,67.5c2.1,2.1,3.2,4.7,3.2,7.6c0,3-1,5.5-3.1,7.6c-2.1,2.1-4.6,3.1-7.6,3.1c-3,0-5.6-1-7.6-3.1l-67.5-67.5v49.2c0,3-1,5.5-3.1,7.6c-2.1,2.1-4.6,3.1-7.6,3.1c-3,0-5.5-1-7.6-3.1c-2.1-2.1-3.1-4.6-3.1-7.6v-75.1c0-3,1.1-5.5,3.2-7.6C144,139.8,146.6,138.7,149.5,138.7z"/></svg>