<svg xmlns="http://www.w3.org/2000/svg" viewBox="0 0 256 256"><path d="M149.5,138.6c3,0,5.5,1.1,7.6,3.2l67.5,67.5v-49.2c0-3,1-5.5,3.1-7.6c2.1-2.1,4.6-3.1,7.6-3.1c3,0,5.5,1,7.6,3.1c2.1,2.1,3.1,4.6,3.1,7.6v75.1c0,3-1.1,5.5-3.2,7.6c-2.1,2.1-4.7,3.2-7.6,3.2h-75.1c-3,0-5.5-1-7.6-3.1c-2.1-2.1-3.1-4.6-3.1-7.6s1-5.5,3.1-7.6c2.1-2.1,4.6-3.1,7.6-3.1h49.2l-67.5-67.5c-2.1-2.2-3.1-4.7-3.1-7.6c0-3,1-5.5,3.1-7.6C144,139.7,146.5,138.7,149.5,138.6zM20.7,10h75.1c3,0,5.5,1,7.6,3.1c2.1,2.1,3.1,4.6,3.1,7.6c0,3-1,5.5-3.1,7.6c-2.1,2.1-4.6,3.1-7.6,3.1H46.6l67.5,67.4c2.1,2.1,3.2,4.7,3.2,7.6c0,3-1.1,5.5-3.2,7.6c-2.1,2.1-4.7,3.1-7.6,3.1c-2.8,0-5.4-1-7.6-3.1L31.5,46.6v49.2c0,3-1,5.5-3.1,7.6c-2.1,2.1-4.6,3.1-7.6,3.1c-3,0-5.5-1-7.6-3.1c-2.1-2.1-3.1-4.6-3.1-7.6V20.7c0-3,1-5.5,3.1-7.6C15.2,11,17.8,10,20.7,10z"/></svg>